<?xml version="1.0" standalone="no"?>
<!DOCTYPE svg PUBLIC "-//W3C//DTD SVG 20010904//EN"
 "http://www.w3.org/TR/2001/REC-SVG-20010904/DTD/svg10.dtd">
<svg version="1.0" xmlns="http://www.w3.org/2000/svg"
 width="886.000000pt" height="886.000000pt" viewBox="0 0 886.000000 886.000000"
 preserveAspectRatio="xMidYMid meet">
<metadata>
Created by potrace 1.14, written by Peter Selinger 2001-2017
</metadata>
<g transform="translate(0.000000,886.000000) scale(0.100000,-0.100000)"
fill="#000000" stroke="none">
<path d="M3736 7210 c-28 -3 -60 -6 -73 -5 -13 0 -23 -2 -23 -5 0 -3 -12 -5
-27 -6 -34 -1 -119 -11 -153 -19 -14 -2 -41 -8 -60 -11 -57 -11 -62 -12 -150
-34 -47 -11 -92 -23 -100 -24 -47 -12 -257 -83 -330 -113 -99 -41 -309 -140
-329 -156 -7 -6 -20 -12 -29 -13 -8 -2 -18 -6 -21 -11 -3 -4 -26 -19 -51 -33
-25 -13 -49 -28 -55 -32 -5 -4 -53 -36 -105 -70 -52 -34 -102 -67 -110 -75 -8
-7 -41 -33 -73 -58 -106 -84 -172 -141 -248 -217 -43 -43 -68 -61 -56 -40 8
12 20 103 22 163 3 78 -29 143 -102 208 -72 65 -115 78 -155 50 l-28 -20 9 24
c15 40 -23 43 -61 6 -36 -34 -43 -36 -28 -10 15 29 13 33 -17 28 -108 -18
-222 -126 -250 -237 -17 -68 -5 -165 25 -210 9 -14 25 -49 35 -78 10 -30 23
-60 30 -69 32 -39 70 -72 96 -83 30 -12 37 -30 48 -121 4 -34 1 -48 -11 -58
-22 -19 -167 -101 -178 -101 -4 0 -8 -4 -8 -10 0 -5 -4 -10 -9 -10 -5 0 -45
-21 -88 -46 -43 -26 -97 -55 -120 -65 -47 -20 -68 -57 -78 -137 -4 -26 -8 -54
-10 -62 -2 -8 -7 -58 -11 -110 -8 -113 -12 -155 -14 -155 0 0 -3 -21 -5 -47
-2 -26 -6 -51 -9 -56 -3 -5 -8 -35 -11 -68 -3 -32 -8 -81 -12 -109 -4 -27 -7
-147 -8 -265 -1 -245 -3 -254 -82 -335 -26 -28 -79 -86 -118 -130 -38 -44 -76
-86 -83 -93 -27 -29 -147 -187 -164 -216 -37 -63 -76 -153 -88 -205 -14 -58
-17 -225 -7 -336 3 -38 9 -99 12 -135 3 -36 8 -85 11 -110 4 -25 8 -61 9 -80
2 -19 6 -66 9 -105 19 -215 34 -441 35 -539 1 -56 -8 -55 131 -11 47 14 92 28
100 30 8 2 22 6 30 9 12 5 15 -2 13 -31 -1 -21 -2 -46 -2 -55 -1 -9 -15 -21
-34 -27 -19 -7 -87 -63 -166 -138 -76 -72 -155 -139 -183 -153 -75 -38 -179
-121 -201 -160 -34 -61 -10 -107 78 -149 75 -36 185 -38 272 -6 71 27 144 75
210 138 36 35 54 44 137 64 153 36 229 85 238 154 6 41 15 48 52 39 19 -4 54
-4 78 0 23 5 46 6 51 3 10 -6 204 -6 215 1 4 2 24 1 44 -3 20 -5 41 -5 48 -1
7 4 27 4 45 0 19 -4 52 -4 74 0 23 4 41 4 41 0 0 -4 18 -4 41 0 22 4 55 4 72
1 18 -4 43 -4 57 -1 35 9 60 1 60 -20 0 -27 29 -78 56 -99 27 -21 122 -60 164
-67 82 -14 121 -32 167 -74 147 -139 290 -186 433 -144 100 30 150 81 136 139
-6 24 -54 79 -102 116 -28 22 -143 89 -153 89 -4 0 -20 14 -36 30 -26 27 -26
36 0 30 6 -1 64 -1 130 -1 66 1 127 2 135 2 8 0 51 0 95 0 44 1 89 0 100 -1
28 -2 30 -2 132 0 51 1 96 0 100 -3 5 -3 28 -2 51 3 24 4 58 4 77 0 18 -4 38
-4 45 0 7 4 27 4 45 0 19 -4 52 -4 74 0 23 4 41 4 41 0 0 -4 18 -4 41 0 22 4
55 4 74 0 18 -4 38 -4 45 0 7 4 27 4 45 0 19 -4 53 -4 77 0 23 5 46 6 51 3 4
-3 43 -4 85 -3 42 1 83 1 90 1 38 -3 192 -3 237 0 22 1 49 1 60 1 11 0 49 -1
85 -1 36 0 72 0 80 0 8 0 49 0 90 0 41 0 81 0 88 0 38 -3 192 -3 237 0 22 1
49 1 60 1 11 0 49 -1 85 -1 36 0 72 0 80 0 8 0 49 0 90 0 41 0 81 0 88 0 38
-3 192 -3 237 0 22 1 49 1 60 1 11 0 49 -1 85 -1 36 0 72 0 80 0 8 0 49 0 90
0 41 0 81 0 88 0 38 -3 192 -3 237 0 22 1 48 1 58 1 9 0 63 -1 120 -1 56 0
117 0 136 -1 21 -1 166 -59 371 -150 244 -108 351 -150 390 -155 78 -9 141
-16 170 -20 14 -1 57 -6 95 -10 39 -3 85 -10 103 -15 32 -9 34 -7 52 33 l19
42 -37 17 c-20 10 -41 19 -45 20 -4 2 4 39 18 83 15 44 28 91 31 105 2 14 11
42 19 63 8 20 15 46 15 57 0 11 7 20 15 20 13 0 14 -9 9 -47 -27 -183 53 -337
215 -411 48 -22 70 -26 151 -26 83 0 102 4 152 28 285 139 284 537 -1 674 -50
24 -68 26 -166 26 -63 0 -114 5 -120 11 -10 10 -95 137 -109 162 -4 7 11 70
33 140 22 70 49 160 61 198 12 39 31 102 43 140 11 39 22 72 22 75 7 30 28 99
35 115 5 11 23 70 40 130 17 61 35 121 40 135 9 26 74 240 91 300 6 19 13 42
16 50 3 8 7 20 8 25 2 6 19 64 40 130 20 66 45 147 55 180 10 33 27 92 39 130
12 39 23 77 26 85 2 8 16 53 30 100 14 47 28 92 30 101 2 8 10 32 19 52 8 20
13 37 11 37 -2 0 2 18 10 40 8 22 12 40 8 40 -3 0 -1 6 4 13 6 6 25 62 42 122
53 182 67 221 81 235 3 3 14 24 25 47 11 24 23 43 28 43 4 0 7 4 7 9 0 5 38
76 84 158 83 145 85 149 82 208 -6 127 -55 160 -266 180 -91 9 -260 18 -301
17 -92 -2 -229 -92 -246 -162 -3 -14 -22 -54 -41 -90 -20 -36 -43 -78 -51 -95
-9 -16 -18 -32 -21 -35 -12 -12 -130 -241 -128 -249 3 -10 -14 -74 -23 -91 -8
-14 -69 -218 -73 -243 -1 -7 -5 -17 -8 -23 -4 -6 -9 -21 -12 -35 -2 -13 -14
-52 -25 -87 -17 -53 -39 -124 -47 -154 -1 -5 -3 -10 -4 -13 -1 -3 -4 -9 -5
-15 -1 -5 -4 -12 -5 -15 -1 -3 -3 -8 -4 -12 -1 -5 -10 -35 -21 -68 -10 -33
-19 -64 -21 -70 -1 -5 -10 -37 -20 -70 -10 -33 -19 -62 -19 -65 -1 -3 -4 -12
-8 -20 -8 -22 -85 -276 -107 -355 -4 -16 -20 -68 -35 -115 -15 -47 -33 -105
-40 -130 -7 -25 -39 -128 -70 -230 -62 -201 -82 -269 -94 -315 -15 -53 -51
-159 -61 -177 -6 -10 -10 -26 -10 -36 0 -37 -22 -83 -38 -80 -15 3 -16 81 -17
798 -1 437 -5 818 -8 845 -4 28 -9 75 -13 105 -8 69 -13 108 -18 140 -10 58
-17 96 -22 113 -3 11 -7 29 -9 40 -1 12 -7 40 -13 62 -6 22 -13 51 -16 65 -6
31 -47 164 -76 245 -11 33 -22 65 -24 70 -32 105 -223 485 -240 480 -6 -2 -33
-6 -61 -9 -27 -3 -61 -8 -75 -10 -14 -3 -45 -7 -70 -10 -25 -3 -62 -8 -82 -11
-21 -3 -53 -7 -70 -10 -18 -2 -50 -7 -70 -10 -98 -14 -116 -16 -153 -21 -22
-2 -53 -7 -70 -10 -16 -3 -46 -7 -65 -9 -36 -3 -102 -12 -155 -21 -16 -3 -48
-7 -70 -9 -22 -3 -56 -7 -75 -10 -49 -8 -97 -14 -150 -20 -25 -3 -52 -7 -60
-10 -8 -2 -42 -7 -74 -11 -33 -3 -67 -7 -75 -9 -25 -4 -92 -14 -136 -20 -114
-14 -140 -17 -145 -20 -3 -2 -39 -6 -80 -10 -41 -4 -78 -9 -81 -11 -3 -1 -28
-6 -56 -9 -27 -3 -59 -7 -70 -9 -11 -3 -42 -7 -69 -10 -83 -11 -108 -14 -139
-19 -16 -3 -52 -8 -80 -11 -27 -4 -61 -8 -75 -11 -31 -5 -77 -11 -155 -21 -33
-3 -69 -8 -80 -10 -11 -3 -42 -7 -70 -11 -73 -9 -90 -11 -90 -13 0 -1 -18 -3
-40 -5 -21 -3 -53 -6 -70 -9 -16 -2 -52 -8 -80 -11 -27 -4 -61 -9 -75 -11 -14
-2 -50 -6 -80 -10 -30 -3 -57 -8 -60 -9 -3 -2 -34 -6 -69 -10 -35 -4 -75 -11
-88 -16 -15 -5 -22 -5 -18 0 3 6 -8 6 -27 0 -18 -5 -53 -11 -78 -13 -25 -3
-46 -6 -47 -7 -2 -1 -11 -2 -20 -3 -29 -3 -136 -18 -154 -21 -9 -2 -40 -6 -70
-10 -60 -7 -86 -11 -144 -20 -41 -6 -73 -10 -160 -20 -27 -4 -57 -8 -65 -10
-8 -2 -39 -7 -67 -10 -51 -6 -53 -6 -53 18 0 25 19 34 120 52 14 3 36 7 50 10
45 10 74 16 145 30 39 8 102 22 140 30 39 9 81 18 95 20 31 5 67 13 88 19 9 3
34 7 56 11 21 3 42 7 46 10 4 2 22 7 41 9 32 4 92 17 149 30 14 4 43 9 64 11
21 3 42 7 46 10 5 3 193 44 275 59 11 2 31 7 45 10 14 3 36 8 50 10 14 3 59
12 100 21 41 9 84 18 95 20 34 7 69 14 95 19 57 13 128 27 156 32 16 3 45 9
64 14 19 5 53 12 75 16 22 3 43 8 46 10 4 2 24 6 44 10 36 5 48 8 98 19 12 3
38 8 57 11 19 3 38 8 41 10 4 2 24 6 45 10 22 3 75 14 119 24 44 10 96 21 115
24 33 6 52 10 103 21 12 3 36 8 52 10 17 3 37 8 45 10 8 2 26 6 40 9 14 2 93
18 175 36 83 17 161 34 175 36 14 3 45 10 70 15 25 6 54 12 65 15 23 4 109 22
145 30 14 3 70 14 125 25 55 11 116 24 135 29 19 5 49 11 65 14 17 3 39 7 50
9 11 3 49 11 85 17 36 7 67 14 69 16 12 10 -81 116 -259 295 -136 136 -210
202 -304 272 -28 21 -66 50 -84 65 -57 44 -226 152 -239 152 -7 0 -13 4 -13 9
0 12 -305 162 -415 204 -84 33 -200 73 -235 82 -8 2 -40 11 -70 20 -30 9 -66
18 -80 21 -14 3 -32 7 -40 9 -8 3 -33 7 -55 11 -22 3 -43 8 -46 10 -4 2 -24 6
-45 9 -22 3 -48 7 -59 9 -22 4 -99 15 -166 23 -67 8 -487 10 -543 3z m4779
-1474 c254 -19 272 -27 290 -133 4 -26 -5 -49 -45 -119 -27 -48 -50 -88 -50
-90 0 -2 -20 -38 -45 -80 -25 -41 -45 -77 -45 -79 0 -2 -13 -27 -30 -54 -16
-28 -41 -90 -56 -138 -14 -49 -28 -95 -31 -103 -4 -8 -8 -24 -10 -35 -2 -11
-10 -37 -18 -57 -8 -21 -12 -38 -9 -38 4 0 1 -6 -5 -14 -12 -14 -25 -14 -91
-1 -14 3 -36 7 -50 10 -14 2 -79 14 -145 25 -66 12 -131 23 -145 26 -48 9
-185 34 -205 37 -35 5 -45 16 -35 40 5 12 25 78 46 147 38 126 48 151 73 183
8 9 11 17 7 17 -4 0 5 17 19 37 14 21 25 43 25 49 0 7 3 14 8 16 9 4 45 71
103 188 51 104 90 142 179 174 15 5 130 1 265 -8z m-675 -901 c19 -3 84 -15
144 -26 60 -11 121 -22 135 -24 14 -2 78 -14 141 -25 130 -24 150 -28 167 -29
8 -1 9 -9 3 -28 -5 -16 -20 -66 -35 -113 -14 -47 -28 -92 -30 -100 -11 -48
-49 -157 -57 -167 -7 -8 -16 -9 -27 -4 -9 5 -33 12 -55 15 -21 4 -41 8 -45 11
-4 2 -28 6 -53 9 -25 3 -52 8 -59 11 -8 2 -26 7 -41 10 -43 8 -80 15 -108 21
-14 3 -35 7 -47 9 -12 2 -36 7 -55 11 -18 4 -40 8 -48 9 -8 1 -26 5 -40 9 -14
5 -34 10 -45 11 -11 1 -24 3 -28 4 -8 1 -5 40 5 56 3 6 9 26 14 45 10 42 9 41
17 60 7 19 39 130 43 150 2 9 10 33 19 53 12 28 20 37 33 33 9 -3 33 -8 52
-11z m-120 -454 c30 -6 64 -13 75 -15 11 -2 90 -19 175 -36 85 -18 164 -34
175 -36 69 -10 141 -29 147 -38 4 -6 3 -15 -1 -21 -5 -5 -23 -59 -40 -120 -18
-60 -43 -144 -56 -185 -13 -41 -49 -158 -80 -260 -31 -102 -58 -190 -60 -197
-3 -8 -16 -8 -52 3 -26 9 -55 17 -63 19 -25 7 -155 44 -227 64 -177 51 -221
64 -258 73 -22 6 -43 14 -47 17 -4 3 0 26 8 51 9 25 18 54 20 64 4 21 22 83
31 106 9 21 9 21 17 55 4 17 14 47 22 68 8 20 13 38 12 40 -1 1 4 18 10 37 6
19 29 96 52 170 23 74 43 141 46 148 2 7 12 11 21 8 10 -2 43 -9 73 -15z
m-220 -817 c47 -14 114 -34 150 -44 108 -30 212 -60 265 -75 28 -9 65 -18 83
-21 17 -4 32 -13 32 -20 0 -19 -158 -542 -187 -619 -8 -22 -14 -41 -13 -43 1
-1 -8 -34 -20 -72 -19 -58 -25 -68 -39 -61 -15 8 -182 72 -336 128 -38 14 -83
31 -100 38 -16 7 -48 19 -70 26 -22 7 -44 16 -50 20 -5 3 -22 9 -36 13 l-27 6
25 77 c14 43 34 110 45 148 11 39 23 77 26 85 3 8 6 18 7 23 2 4 3 8 5 10 1 1
3 9 5 17 3 17 62 212 75 250 5 14 16 51 26 83 11 39 22 57 33 57 9 0 54 -12
101 -26z m-6730 -164 c0 -65 -17 -65 -22 0 -2 35 1 50 10 50 8 0 12 -17 12
-50z m0 -70 c0 -5 -2 -10 -4 -10 -3 0 -8 5 -11 10 -3 6 -1 10 4 10 6 0 11 -4
11 -10z m6433 -564 c18 -8 50 -20 72 -26 22 -7 45 -16 51 -21 6 -5 19 -10 30
-12 10 -2 36 -11 58 -20 21 -9 42 -17 46 -17 8 0 92 -32 148 -57 18 -8 41 -16
51 -18 11 -2 32 -10 49 -19 16 -8 32 -12 36 -9 3 4 6 1 6 -6 0 -7 5 -9 12 -5
15 10 6 -36 -31 -151 -16 -49 -34 -109 -40 -132 -10 -36 -14 -40 -34 -35 -45
11 -177 68 -172 74 3 3 6 36 6 74 0 102 -41 199 -112 264 -59 54 -73 62 -150
87 -43 14 -79 30 -79 35 0 12 18 10 53 -6z m662 -328 c43 -60 55 -88 36 -88
-16 0 -111 -92 -127 -122 -16 -32 -40 -33 -38 -2 1 10 14 60 30 109 34 109 30
94 39 133 4 17 9 32 11 32 2 0 24 -28 49 -62z m-312 -219 c45 -17 87 -36 94
-43 9 -8 5 -31 -17 -101 -16 -49 -36 -115 -45 -145 -8 -30 -19 -61 -24 -68 -6
-11 -49 3 -192 63 -101 42 -188 80 -192 84 -5 5 8 12 29 16 92 17 202 100 239
182 11 23 21 43 23 43 1 0 40 -14 85 -31z"/>
</g>
</svg>
